<svg width="55" height="48" viewBox="0 0 55 48" fill="none" xmlns="http://www.w3.org/2000/svg">
<path d="M51.424 20.5739H10.7647L23.2094 5.62665C23.7913 4.92654 24.0712 4.02394 23.9876 3.11742C23.9041 2.2109 23.4638 1.3747 22.7637 0.792794C22.0636 0.210885 21.161 -0.0690735 20.2544 0.0145067C19.3479 0.0980869 18.5117 0.53836 17.9298 1.23847L0.788501 21.8081C0.673176 21.9717 0.570049 22.1435 0.479957 22.3223C0.479957 22.4937 0.479958 22.5966 0.239979 22.768C0.0845878 23.161 0.00322641 23.5795 0 24.0021C0.00322641 24.4248 0.0845878 24.8432 0.239979 25.2363C0.239979 25.4077 0.239978 25.5106 0.479957 25.682C0.570049 25.8607 0.673176 26.0326 0.788501 26.1962L17.9298 46.7658C18.2522 47.1528 18.6558 47.464 19.112 47.6773C19.5683 47.8906 20.0659 48.0008 20.5696 48C21.3706 48.0016 22.1469 47.7226 22.7637 47.2115C23.1108 46.9237 23.3978 46.5702 23.6081 46.1714C23.8184 45.7725 23.948 45.3361 23.9894 44.887C24.0308 44.438 23.9832 43.9852 23.8494 43.5546C23.7155 43.124 23.498 42.7241 23.2094 42.3776L10.7647 27.4304H51.424C52.3332 27.4304 53.2052 27.0692 53.8481 26.4263C54.491 25.7834 54.8522 24.9114 54.8522 24.0021C54.8522 23.0929 54.491 22.2209 53.8481 21.578C53.2052 20.9351 52.3332 20.5739 51.424 20.5739Z" fill="#EEEEEE"/>
</svg>
