<svg width="44" height="48" viewBox="0 0 44 48" fill="none" xmlns="http://www.w3.org/2000/svg">
<path d="M41.7427 46.3524C40.7054 47.3898 39.2984 47.9725 37.8314 47.9725C36.3644 47.9725 34.9575 47.3898 33.9201 46.3524L21.6998 32.3851L9.47944 46.3478C8.96732 46.8684 8.35721 47.2823 7.6843 47.5659C7.01138 47.8495 6.28899 47.997 5.55878 48C4.82857 48.0029 4.10499 47.8613 3.42979 47.5832C2.75459 47.3052 2.14113 46.8962 1.62479 46.3798C1.10845 45.8635 0.69945 45.25 0.421382 44.5748C0.143314 43.8996 0.00168188 43.176 0.00465523 42.4458C0.00762858 41.7156 0.155148 40.9932 0.438705 40.3203C0.722262 39.6474 1.13625 39.0373 1.65677 38.5252L14.3703 24.0046L1.65216 9.47483C1.13164 8.96271 0.717653 8.3526 0.434096 7.67969C0.150539 7.00677 0.00301921 6.28438 4.58617e-05 5.55417C-0.00292749 4.82396 0.138705 4.10038 0.416773 3.42518C0.69484 2.74998 1.10384 2.13652 1.62018 1.62018C2.13652 1.10384 2.74998 0.69484 3.42518 0.416773C4.10038 0.138705 4.82396 -0.00292749 5.55417 4.58617e-05C6.28438 0.00301921 7.00677 0.150539 7.67969 0.434096C8.3526 0.717653 8.96271 1.13164 9.47483 1.65216L21.6998 15.6242L33.9201 1.65216C34.4322 1.13164 35.0423 0.717653 35.7152 0.434096C36.3881 0.150539 37.1105 0.00301921 37.8407 4.58617e-05C38.5709 -0.00292749 39.2945 0.138705 39.9697 0.416773C40.6449 0.69484 41.2584 1.10384 41.7747 1.62018C42.2911 2.13652 42.7001 2.74998 42.9781 3.42518C43.2562 4.10038 43.3978 4.82396 43.3949 5.55417C43.3919 6.28438 43.2444 7.00677 42.9608 7.67969C42.6773 8.3526 42.2633 8.96271 41.7427 9.47483L29.0292 24.0046L41.7427 38.5252C42.2571 39.0389 42.6651 39.649 42.9434 40.3205C43.2218 40.9921 43.3651 41.7119 43.3651 42.4388C43.3651 43.1658 43.2218 43.8856 42.9434 44.5571C42.6651 45.2286 42.2571 45.8387 41.7427 46.3524V46.3524Z" fill="#EEEEEE"/>
</svg>
