<svg width="55" height="48" viewBox="0 0 55 48" fill="none" xmlns="http://www.w3.org/2000/svg">
<path d="M46.33 1.53034C47.278 0.537918 48.5395 -0.0107309 49.8483 0.000159065C51.1571 0.011049 52.4109 0.580628 53.3451 1.58871C54.2793 2.59678 54.8208 3.96451 54.8554 5.40329C54.89 6.84207 54.4149 8.23936 53.5305 9.30031L26.6801 46.2262C26.2185 46.773 25.6612 47.2119 25.0418 47.5165C24.4223 47.8211 23.7533 47.9852 23.0749 47.9991C22.3964 48.0129 21.7224 47.8761 21.0931 47.5969C20.4638 47.3177 19.8922 46.9019 19.4124 46.3742L1.60637 26.7939C1.1105 26.2858 0.712775 25.673 0.436924 24.9922C0.161072 24.3115 0.0127422 23.5765 0.000785455 22.8313C-0.0111713 22.0861 0.11349 21.3459 0.36733 20.6549C0.621171 19.9638 0.99899 19.336 1.47825 18.809C1.95751 18.282 2.52839 17.8665 3.15684 17.5874C3.78529 17.3082 4.45842 17.1712 5.1361 17.1843C5.81377 17.1975 6.48209 17.3606 7.10119 17.6639C7.72029 17.9672 8.27748 18.4046 8.73954 18.9499L22.8309 34.438L46.2022 1.69314C46.2442 1.63616 46.2892 1.58181 46.3368 1.53034H46.33Z" fill="#EEEEEE"/>
</svg>
