<svg width="48" height="48" viewBox="0 0 48 48" fill="none" xmlns="http://www.w3.org/2000/svg">
<path d="M24 0C10.752 0 0 10.752 0 24C0 37.248 10.752 48 24 48H36V43.2H24C13.584 43.2 4.8 34.416 4.8 24C4.8 13.584 13.584 4.8 24 4.8C34.416 4.8 43.2 13.584 43.2 24V27.432C43.2 29.328 41.496 31.2 39.6 31.2C37.704 31.2 36 29.328 36 27.432V24C36 17.376 30.624 12 24 12C17.376 12 12 17.376 12 24C12 30.624 17.376 36 24 36C27.312 36 30.336 34.656 32.496 32.472C34.056 34.608 36.744 36 39.6 36C44.328 36 48 32.16 48 27.432V24C48 10.752 37.248 0 24 0ZM24 31.2C20.016 31.2 16.8 27.984 16.8 24C16.8 20.016 20.016 16.8 24 16.8C27.984 16.8 31.2 20.016 31.2 24C31.2 27.984 27.984 31.2 24 31.2Z" fill="#EEEEEE"/>
</svg>
