<svg width="18" height="18" viewBox="0 0 18 18" fill="none" xmlns="http://www.w3.org/2000/svg">
<path d="M9 0C4.032 0 0 4.032 0 9C0 13.968 4.032 18 9 18H13.5V16.2H9C5.094 16.2 1.8 12.906 1.8 9C1.8 5.094 5.094 1.8 9 1.8C12.906 1.8 16.2 5.094 16.2 9V10.287C16.2 10.998 15.561 11.7 14.85 11.7C14.139 11.7 13.5 10.998 13.5 10.287V9C13.5 6.516 11.484 4.5 9 4.5C6.516 4.5 4.5 6.516 4.5 9C4.5 11.484 6.516 13.5 9 13.5C10.242 13.5 11.376 12.996 12.186 12.177C12.771 12.978 13.779 13.5 14.85 13.5C16.623 13.5 18 12.06 18 10.287V9C18 4.032 13.968 0 9 0ZM9 11.7C7.506 11.7 6.3 10.494 6.3 9C6.3 7.506 7.506 6.3 9 6.3C10.494 6.3 11.7 7.506 11.7 9C11.7 10.494 10.494 11.7 9 11.7Z" fill="#3A3F47"/>
</svg>
