<svg width="11" height="12" viewBox="0 0 11 12" fill="none" xmlns="http://www.w3.org/2000/svg">
<path d="M10.4357 11.5881C10.1763 11.8474 9.82461 11.9931 9.45785 11.9931C9.0911 11.9931 8.73936 11.8474 8.48002 11.5881L5.42494 8.09626L2.36986 11.587C2.24183 11.7171 2.0893 11.8206 1.92107 11.8915C1.75285 11.9624 1.57225 11.9992 1.38969 12C1.20714 12.0007 1.02625 11.9653 0.857448 11.8958C0.688649 11.8263 0.535283 11.724 0.406197 11.595C0.277112 11.4659 0.174862 11.3125 0.105346 11.1437C0.0358286 10.9749 0.000420471 10.794 0.00116381 10.6115C0.00190714 10.4289 0.038787 10.2483 0.109676 10.0801C0.180566 9.91185 0.284061 9.75932 0.414194 9.63129L3.59258 6.00115L0.413041 2.36871C0.282909 2.24068 0.179413 2.08815 0.108524 1.91992C0.0376347 1.75169 0.000754802 1.57109 1.14654e-05 1.38854C-0.000731871 1.20599 0.0346763 1.0251 0.104193 0.856296C0.17371 0.687496 0.27596 0.53413 0.405045 0.405045C0.53413 0.27596 0.687496 0.17371 0.856296 0.104193C1.0251 0.0346763 1.20599 -0.000731871 1.38854 1.14654e-05C1.57109 0.000754802 1.75169 0.0376347 1.91992 0.108524C2.08815 0.179413 2.24068 0.282909 2.36871 0.413041L5.42494 3.90604L8.48002 0.413041C8.60805 0.282909 8.76058 0.179413 8.92881 0.108524C9.09703 0.0376347 9.27763 0.000754802 9.46019 1.14654e-05C9.64274 -0.000731871 9.82363 0.0346763 9.99243 0.104193C10.1612 0.17371 10.3146 0.27596 10.4437 0.405045C10.5728 0.53413 10.675 0.687496 10.7445 0.856296C10.8141 1.0251 10.8495 1.20599 10.8487 1.38854C10.848 1.57109 10.8111 1.75169 10.7402 1.91992C10.6693 2.08815 10.5658 2.24068 10.4357 2.36871L7.2573 6.00115L10.4357 9.63129C10.5643 9.75973 10.6663 9.91225 10.7359 10.0801C10.8055 10.248 10.8413 10.428 10.8413 10.6097C10.8413 10.7914 10.8055 10.9714 10.7359 11.1393C10.6663 11.3072 10.5643 11.4597 10.4357 11.5881Z" fill="#EEEEEE"/>
</svg>
