<svg width="49" height="48" viewBox="0 0 49 48" fill="none" xmlns="http://www.w3.org/2000/svg">
<path d="M47.4175 24.7776L25.8019 0.760151C24.8916 -0.253384 23.1431 -0.253384 22.2329 0.760151L0.617208 24.7776C0.306078 25.1224 0.101854 25.5503 0.0293686 26.0091C-0.0431169 26.4679 0.019259 26.9378 0.208912 27.3618C0.593191 28.2289 1.45301 28.7861 2.4017 28.7861H7.20518V45.5983C7.20518 46.2352 7.45822 46.8461 7.90864 47.2966C8.35905 47.747 8.96994 48 9.60693 48H16.8121C17.4491 48 18.06 47.747 18.5104 47.2966C18.9608 46.8461 19.2139 46.2352 19.2139 45.5983V35.9913H28.8209V45.5983C28.8209 46.2352 29.0739 46.8461 29.5243 47.2966C29.9747 47.747 30.5856 48 31.2226 48H38.4278C39.0648 48 39.6757 47.747 40.1261 47.2966C40.5765 46.8461 40.8296 46.2352 40.8296 45.5983V28.7861H45.633C46.0982 28.7881 46.5538 28.6547 46.9445 28.4021C47.3351 28.1496 47.6438 27.7889 47.833 27.364C48.0222 26.939 48.0836 26.4682 48.0098 26.009C47.9361 25.5497 47.7303 25.1219 47.4175 24.7776Z" fill="#EEEEEE"/>
</svg>
