<svg width="48" height="48" viewBox="0 0 48 48" fill="none" xmlns="http://www.w3.org/2000/svg">
<path d="M24 0C10.7664 0 0 10.7664 0 24C0 37.2336 10.7664 48 24 48C37.2336 48 48 37.2336 48 24C48 10.7664 37.2336 0 24 0ZM14.4 16.8C19.6824 16.8 21.6 21.1056 21.6 24H16.8C16.7712 22.92 16.3344 21.6 14.4 21.6C12.4656 21.6 12.0288 22.92 12 24.0288L7.2 24C7.2 21.1056 9.1176 16.8 14.4 16.8ZM24 38.4C14.4 38.4 12 28.8 12 28.8H36C36 28.8 33.6 38.4 24 38.4ZM36 24C35.9712 22.92 35.5344 21.6 33.6 21.6C31.6656 21.6 31.2288 22.92 31.2 24.0288L26.4 24C26.4 21.1056 28.3176 16.8 33.6 16.8C38.8824 16.8 40.8 21.1056 40.8 24H36Z" fill="#EEEEEE"/>
</svg>
