<svg width="36" height="36" viewBox="0 0 36 36" fill="none" xmlns="http://www.w3.org/2000/svg">
<path d="M18 0C8.0748 0 0 8.0748 0 18C0 27.9252 8.0748 36 18 36C27.9252 36 36 27.9252 36 18C36 8.0748 27.9252 0 18 0ZM10.8 12.6C14.7618 12.6 16.2 15.8292 16.2 18H12.6C12.5784 17.19 12.2508 16.2 10.8 16.2C9.3492 16.2 9.0216 17.19 9 18.0216L5.4 18C5.4 15.8292 6.8382 12.6 10.8 12.6ZM18 28.8C10.8 28.8 9 21.6 9 21.6H27C27 21.6 25.2 28.8 18 28.8ZM27 18C26.9784 17.19 26.6508 16.2 25.2 16.2C23.7492 16.2 23.4216 17.19 23.4 18.0216L19.8 18C19.8 15.8292 21.2382 12.6 25.2 12.6C29.1618 12.6 30.6 15.8292 30.6 18H27Z" fill="#3A3F47"/>
</svg>
