<svg width="35" height="48" viewBox="0 0 35 48" fill="none" xmlns="http://www.w3.org/2000/svg">
<path d="M31.6345 21.106L18.9066 0.83813C18.7219 0.578943 18.478 0.367649 18.1951 0.221857C17.9122 0.0760656 17.5986 0 17.2803 0C16.9621 0 16.6484 0.0760656 16.3656 0.221857C16.0827 0.367649 15.8387 0.578943 15.6541 0.83813L2.86854 21.202C1.09228 24.0672 0.102848 27.3501 0 30.7197C0 35.3027 1.8206 39.698 5.06129 42.9387C8.30198 46.1794 12.6973 48 17.2803 48C21.8634 48 26.2587 46.1794 29.4994 42.9387C32.7401 39.698 34.5607 35.3027 34.5607 30.7197C34.4503 27.3131 33.4408 23.9964 31.6345 21.106V21.106ZM17.2803 44.1599C13.7172 44.1554 10.3012 42.7379 7.78169 40.2183C5.26214 37.6988 3.84465 34.2828 3.84007 30.7197C3.94213 28.0347 4.74865 25.4237 6.17868 23.149L7.97391 20.2881L27.3164 39.6306C26.0601 41.0538 24.5157 42.1939 22.7855 42.9751C21.0552 43.7563 19.1787 44.1608 17.2803 44.1618V44.1599Z" fill="#EEEEEE"/>
</svg>
