<svg width="14" height="20" viewBox="0 0 14 20" fill="none" xmlns="http://www.w3.org/2000/svg">
<path d="M12.0746 8.8551V5.84512C12.0746 4.56012 11.5641 3.32774 10.6555 2.4191C9.74683 1.51047 8.51446 1 7.22945 1C5.94444 1 4.71207 1.51047 3.80343 2.4191C2.89479 3.32774 2.38432 4.56012 2.38432 5.84512V8.8551C1.64514 9.76979 1.17998 10.875 1.04263 12.043C0.905286 13.211 1.10136 14.394 1.60819 15.4552C2.11502 16.5164 2.91189 17.4125 3.90665 18.0398C4.90141 18.6671 6.05342 19 7.22945 19C8.40548 19 9.55749 18.6671 10.5522 18.0398C11.547 17.4125 12.3439 16.5164 12.8507 15.4552C13.3575 14.394 13.5536 13.211 13.4163 12.043C13.2789 10.875 12.8138 9.76979 12.0746 8.8551V8.8551Z" stroke="#3A3F47" stroke-linecap="round" stroke-linejoin="round"/>
<path d="M7.22946 6.53728C8.19068 6.53789 9.13857 6.76222 9.9981 7.19253V5.84512C9.9981 5.11083 9.70641 4.40662 9.18718 3.88739C8.66796 3.36817 7.96375 3.07648 7.22946 3.07648C6.49517 3.07648 5.79095 3.36817 5.27173 3.88739C4.75251 4.40662 4.46082 5.11083 4.46082 5.84512V7.19253C5.32034 6.76221 6.26823 6.53787 7.22946 6.53728V6.53728ZM8.8445 11.8438C8.84551 11.5546 8.76882 11.2704 8.62243 11.0209C8.47605 10.7714 8.26534 10.5658 8.01233 10.4256C7.75932 10.2854 7.4733 10.2157 7.18415 10.2238C6.895 10.2319 6.61333 10.3175 6.36859 10.4717C6.12385 10.6259 5.925 10.843 5.79284 11.1003C5.66069 11.3576 5.60006 11.6457 5.6173 11.9344C5.63454 12.2232 5.72901 12.502 5.89085 12.7418C6.05269 12.9815 6.27595 13.1734 6.5373 13.2974V15.5354H7.92162V13.2974C8.19719 13.1672 8.43019 12.9615 8.59355 12.7043C8.75691 12.447 8.84393 12.1486 8.8445 11.8438V11.8438Z" stroke="#3A3F47" stroke-linecap="round" stroke-linejoin="round"/>
</svg>
