<svg width="47" height="48" viewBox="0 0 47 48" fill="none" xmlns="http://www.w3.org/2000/svg">
<path d="M32.8667 35.4C32.3778 34.8222 32.1333 34.1662 32.1333 33.432C32.1333 32.6996 32.3778 32.0889 32.8667 31.6L37.8 26.6667H18.6667C17.9111 26.6667 17.2782 26.4107 16.768 25.8987C16.256 25.3884 16 24.7556 16 24C16 23.2444 16.256 22.6107 16.768 22.0987C17.2782 21.5884 17.9111 21.3333 18.6667 21.3333H37.8L32.8667 16.4C32.3333 15.8667 32.0667 15.2338 32.0667 14.5013C32.0667 13.7671 32.3333 13.1333 32.8667 12.6C33.3556 12.0667 33.9671 11.8 34.7013 11.8C35.4338 11.8 36.0444 12.0444 36.5333 12.5333L46.1333 22.1333C46.4 22.4 46.5893 22.6889 46.7013 23C46.8116 23.3111 46.8667 23.6444 46.8667 24C46.8667 24.3556 46.8116 24.6889 46.7013 25C46.5893 25.3111 46.4 25.6 46.1333 25.8667L36.5333 35.4667C35.9556 36.0444 35.3227 36.2996 34.6347 36.232C33.9449 36.1662 33.3556 35.8889 32.8667 35.4V35.4ZM5.33333 48C3.86667 48 2.61067 47.4782 1.56533 46.4347C0.521777 45.3893 0 44.1333 0 42.6667V5.33333C0 3.86667 0.521777 2.61067 1.56533 1.56533C2.61067 0.521777 3.86667 0 5.33333 0H21.3333C22.0889 0 22.7227 0.255111 23.2347 0.765333C23.7449 1.27733 24 1.91111 24 2.66667C24 3.42222 23.7449 4.05511 23.2347 4.56533C22.7227 5.07733 22.0889 5.33333 21.3333 5.33333H5.33333V42.6667H21.3333C22.0889 42.6667 22.7227 42.9227 23.2347 43.4347C23.7449 43.9449 24 44.5778 24 45.3333C24 46.0889 23.7449 46.7218 23.2347 47.232C22.7227 47.744 22.0889 48 21.3333 48H5.33333Z" fill="#EEEEEE"/>
</svg>
