<svg width="38" height="48" viewBox="0 0 38 48" fill="none" xmlns="http://www.w3.org/2000/svg">
<path d="M18.663 48C15.2955 45.1276 12.1741 41.9785 9.33152 38.5858C5.06568 33.4908 2.34326e-06 25.903 2.34326e-06 18.6724C-0.00184769 14.9797 1.09181 11.3694 3.14257 8.29848C5.19333 5.22756 8.10901 2.83403 11.5206 1.42081C14.9322 0.00758977 18.6864 -0.361796 22.308 0.359401C25.9296 1.0806 29.2558 2.85996 31.8658 5.47229C33.6035 7.20224 34.9808 9.25965 35.918 11.5254C36.8553 13.7912 37.3339 16.2204 37.3261 18.6724C37.3261 25.903 32.2604 33.4908 27.9945 38.5858C25.1519 41.9785 22.0305 45.1276 18.663 48ZM18.663 10.6739C16.5417 10.6739 14.5073 11.5166 13.0073 13.0166C11.5073 14.5166 10.6646 16.5511 10.6646 18.6724C10.6646 20.7937 11.5073 22.8281 13.0073 24.3281C14.5073 25.8281 16.5417 26.6708 18.663 26.6708C20.7843 26.6708 22.8188 25.8281 24.3188 24.3281C25.8188 22.8281 26.6615 20.7937 26.6615 18.6724C26.6615 16.5511 25.8188 14.5166 24.3188 13.0166C22.8188 11.5166 20.7843 10.6739 18.663 10.6739Z" fill="#EEEEEE"/>
</svg>
