<svg width="36" height="36" viewBox="0 0 36 36" fill="none" xmlns="http://www.w3.org/2000/svg">
<path d="M18 36C22.7739 36 27.3523 34.1036 30.7279 30.7279C34.1036 27.3523 36 22.7739 36 18C36 13.2261 34.1036 8.64773 30.7279 5.27208C27.3523 1.89642 22.7739 0 18 0C13.2261 0 8.64773 1.89642 5.27208 5.27208C1.89642 8.64773 0 13.2261 0 18C0 22.7739 1.89642 27.3523 5.27208 30.7279C8.64773 34.1036 13.2261 36 18 36ZM15.75 14.625C15.75 16.488 14.742 18 13.5 18C12.258 18 11.25 16.488 11.25 14.625C11.25 12.762 12.258 11.25 13.5 11.25C14.742 11.25 15.75 12.762 15.75 14.625ZM9 23.625C9 23.3266 9.11853 23.0405 9.3295 22.8295C9.54048 22.6185 9.82663 22.5 10.125 22.5H25.875C26.1734 22.5 26.4595 22.6185 26.6705 22.8295C26.8815 23.0405 27 23.3266 27 23.625C27 23.9234 26.8815 24.2095 26.6705 24.4205C26.4595 24.6315 26.1734 24.75 25.875 24.75H10.125C9.82663 24.75 9.54048 24.6315 9.3295 24.4205C9.11853 24.2095 9 23.9234 9 23.625ZM22.5 18C21.258 18 20.25 16.488 20.25 14.625C20.25 12.762 21.258 11.25 22.5 11.25C23.742 11.25 24.75 12.762 24.75 14.625C24.75 16.488 23.742 18 22.5 18Z" fill="#3A3F47"/>
</svg>
