<svg width="48" height="48" viewBox="0 0 48 48" fill="none" xmlns="http://www.w3.org/2000/svg">
<path d="M24 0C30.3652 0 36.4697 2.52856 40.9706 7.02944C45.4714 11.5303 48 17.6348 48 24C48 30.3652 45.4714 36.4697 40.9706 40.9706C36.4697 45.4714 30.3652 48 24 48C17.6348 48 11.5303 45.4714 7.02944 40.9706C2.52856 36.4697 0 30.3652 0 24C0 17.6348 2.52856 11.5303 7.02944 7.02944C11.5303 2.52856 17.6348 0 24 0V0ZM24 10.2857C23.5647 10.2853 23.1341 10.3758 22.7358 10.5512C22.3374 10.7266 21.98 10.9832 21.6864 11.3046C21.3927 11.6259 21.1694 12.005 21.0305 12.4175C20.8917 12.8301 20.8404 13.2671 20.88 13.7006L22.1314 27.4354C22.1799 27.8972 22.3977 28.3246 22.7428 28.6353C23.0878 28.946 23.5357 29.118 24 29.118C24.4643 29.118 24.9122 28.946 25.2572 28.6353C25.6023 28.3246 25.8201 27.8972 25.8686 27.4354L27.1166 13.7006C27.1561 13.2674 27.1049 12.8307 26.9663 12.4184C26.8277 12.006 26.6046 11.6271 26.3114 11.3058C26.0181 10.9845 25.6611 10.7279 25.2632 10.5522C24.8652 10.3766 24.435 10.2858 24 10.2857V10.2857ZM24 37.7143C24.7275 37.7143 25.4251 37.4253 25.9395 36.9109C26.4539 36.3965 26.7429 35.6989 26.7429 34.9714C26.7429 34.244 26.4539 33.5463 25.9395 33.0319C25.4251 32.5176 24.7275 32.2286 24 32.2286C23.2725 32.2286 22.5749 32.5176 22.0605 33.0319C21.5461 33.5463 21.2571 34.244 21.2571 34.9714C21.2571 35.6989 21.5461 36.3965 22.0605 36.9109C22.5749 37.4253 23.2725 37.7143 24 37.7143V37.7143Z" fill="#EEEEEE"/>
</svg>
