<svg width="42" height="48" viewBox="0 0 42 48" fill="none" xmlns="http://www.w3.org/2000/svg">
<path fill-rule="evenodd" clip-rule="evenodd" d="M21 0C18.93 0 15.471 0.795 12.216 1.68C8.88602 2.58 5.52902 3.645 3.55502 4.29C2.72969 4.56255 1.99799 5.0624 1.44397 5.7321C0.889945 6.40181 0.536078 7.21422 0.423016 8.076C-1.36498 21.507 2.78402 31.461 7.81802 38.046C9.95276 40.8629 12.4981 43.3435 15.369 45.405C16.527 46.224 17.601 46.851 18.513 47.28C19.353 47.676 20.256 48 21 48C21.744 48 22.644 47.676 23.487 47.28C24.5865 46.7456 25.6383 46.1183 26.631 45.405C29.502 43.3436 32.0473 40.8629 34.182 38.046C39.216 31.461 43.365 21.507 41.577 8.076C41.4641 7.2138 41.1104 6.40092 40.5564 5.7307C40.0024 5.06048 39.2706 4.56009 38.445 4.287C35.5794 3.34744 32.6916 2.47719 29.784 1.677C26.529 0.798 23.07 0 21 0ZM21 15C22.0627 14.9984 23.0917 15.373 23.9047 16.0574C24.7177 16.7418 25.2623 17.6918 25.4419 18.7392C25.6216 19.7867 25.4248 20.8639 24.8863 21.7801C24.3479 22.6963 23.5025 23.3923 22.5 23.745L23.655 29.715C23.697 29.9321 23.6905 30.1559 23.6359 30.3702C23.5814 30.5845 23.48 30.7841 23.3393 30.9547C23.1985 31.1253 23.0218 31.2626 22.8217 31.3569C22.6216 31.4512 22.4032 31.5 22.182 31.5H19.818C19.5971 31.4996 19.379 31.4504 19.1793 31.356C18.9796 31.2615 18.8032 31.1241 18.6628 30.9536C18.5224 30.783 18.4213 30.5836 18.3669 30.3695C18.3125 30.1554 18.306 29.9319 18.348 29.715L19.5 23.745C18.4975 23.3923 17.6522 22.6963 17.1137 21.7801C16.5753 20.8639 16.3784 19.7867 16.5581 18.7392C16.7377 17.6918 17.2823 16.7418 18.0953 16.0574C18.9083 15.373 19.9373 14.9984 21 15V15Z" fill="#EEEEEE"/>
</svg>
