<svg width="16" height="18" viewBox="0 0 16 18" fill="none" xmlns="http://www.w3.org/2000/svg">
<path d="M10.1673 11.0145C10.056 10.9781 9.35295 10.6612 9.7923 9.32566H9.786C10.9312 8.14614 11.8064 6.24812 11.8064 4.37949C11.8064 1.50624 9.89584 0 7.67531 0C5.45338 0 3.55327 1.50554 3.55327 4.37949C3.55327 6.25582 4.42357 8.16153 5.57581 9.33826C6.02495 10.5164 5.22181 10.9536 5.05391 11.0152C2.72844 11.8561 0 13.3889 0 14.9022V15.4695C0 17.5313 3.99751 18 7.697 18C11.4021 18 15.3492 17.5313 15.3492 15.4695V14.9022C15.3492 13.3435 12.6075 11.8225 10.1673 11.0145Z" fill="#3A3F47"/>
</svg>
