<svg width="48" height="48" viewBox="0 0 48 48" fill="none" xmlns="http://www.w3.org/2000/svg">
<path d="M4 48C4 48 0 48 0 44C0 40 4 28 24 28C44 28 48 40 48 44C48 48 44 48 44 48H4ZM24 24C27.1826 24 30.2348 22.7357 32.4853 20.4853C34.7357 18.2348 36 15.1826 36 12C36 8.8174 34.7357 5.76516 32.4853 3.51472C30.2348 1.26428 27.1826 0 24 0C20.8174 0 17.7652 1.26428 15.5147 3.51472C13.2643 5.76516 12 8.8174 12 12C12 15.1826 13.2643 18.2348 15.5147 20.4853C17.7652 22.7357 20.8174 24 24 24Z" fill="#EEEEEE"/>
</svg>
