<svg width="48" height="48" viewBox="0 0 48 48" fill="none" xmlns="http://www.w3.org/2000/svg">
<path d="M48 24C48 30.3652 45.4714 36.4697 40.9706 40.9706C36.4697 45.4714 30.3652 48 24 48C17.6348 48 11.5303 45.4714 7.02944 40.9706C2.52856 36.4697 0 30.3652 0 24C0 17.6348 2.52856 11.5303 7.02944 7.02944C11.5303 2.52856 17.6348 0 24 0C30.3652 0 36.4697 2.52856 40.9706 7.02944C45.4714 11.5303 48 17.6348 48 24V24ZM36.09 14.91C35.8757 14.6965 35.6206 14.5283 35.3398 14.4156C35.059 14.303 34.7584 14.2481 34.456 14.2542C34.1535 14.2604 33.8554 14.3275 33.5795 14.4515C33.3035 14.5755 33.0554 14.7539 32.85 14.976L22.431 28.251L16.152 21.969C15.7255 21.5716 15.1613 21.3552 14.5784 21.3655C13.9955 21.3758 13.4394 21.6119 13.0271 22.0241C12.6149 22.4364 12.3788 22.9925 12.3685 23.5754C12.3582 24.1583 12.5746 24.7225 12.972 25.149L20.91 33.09C21.1238 33.3035 21.3785 33.4717 21.6588 33.5846C21.939 33.6975 22.2391 33.7528 22.5412 33.7472C22.8433 33.7416 23.1412 33.6752 23.4171 33.552C23.693 33.4288 23.9412 33.2512 24.147 33.03L36.123 18.06C36.5313 17.6355 36.7568 17.0678 36.7512 16.4789C36.7456 15.8899 36.5093 15.3267 36.093 14.91H36.09Z" fill="#EEEEEE"/>
</svg>
