<svg width="48" height="48" viewBox="0 0 48 48" fill="none" xmlns="http://www.w3.org/2000/svg">
<path d="M7.95797 33.082C8.33495 33.208 8.64653 33.4784 8.82428 33.8339C9.00203 34.1894 9.03143 34.6009 8.90601 34.9781L7.40595 39.4783C7.34945 39.672 7.25445 39.8523 7.12663 40.0084C6.99882 40.1646 6.84081 40.2933 6.66208 40.387C6.48334 40.4806 6.28755 40.5372 6.08642 40.5535C5.88529 40.5697 5.68296 40.5451 5.49153 40.4813C5.3001 40.4175 5.12352 40.3157 4.97234 40.1821C4.82117 40.0484 4.69851 39.8857 4.61171 39.7035C4.52491 39.5214 4.47576 39.3236 4.46719 39.122C4.45862 38.9204 4.49081 38.7191 4.56184 38.5302L6.0619 34.0301C6.18786 33.6531 6.45828 33.3415 6.81379 33.1637C7.16929 32.986 7.58081 32.9566 7.95797 33.082V33.082ZM36.4591 33.082C36.8361 33.208 37.1477 33.4784 37.3254 33.8339C37.5032 34.1894 37.5326 34.6009 37.4071 34.9781L35.9071 39.4783C35.7705 39.8414 35.4985 40.1375 35.1483 40.3044C34.798 40.4713 34.3967 40.496 34.0287 40.3733C33.6606 40.2506 33.3544 39.9901 33.1743 39.6464C32.9942 39.3028 32.9543 38.9027 33.063 38.5302L34.563 34.0301C34.689 33.6531 34.9594 33.3415 35.3149 33.1637C35.6704 32.986 36.0819 32.9566 36.4591 33.082V33.082ZM13.9582 37.5822C14.3352 37.7082 14.6468 37.9786 14.8245 38.3341C15.0023 38.6896 15.0317 39.1011 14.9062 39.4783L13.4062 43.9784C13.3497 44.1722 13.2547 44.3525 13.1269 44.5086C12.9991 44.6648 12.8411 44.7935 12.6623 44.8872C12.4836 44.9808 12.2878 45.0374 12.0867 45.0536C11.8855 45.0699 11.6832 45.0453 11.4918 44.9815C11.3003 44.9177 11.1238 44.8159 10.9726 44.6823C10.8214 44.5486 10.6987 44.3859 10.6119 44.2037C10.5251 44.0215 10.476 43.8237 10.4674 43.6221C10.4589 43.4205 10.491 43.2193 10.5621 43.0304L12.0621 38.5302C12.1881 38.1532 12.4585 37.8417 12.814 37.6639C13.1695 37.4862 13.581 37.4568 13.9582 37.5822V37.5822ZM42.4593 37.5822C42.8363 37.7082 43.1479 37.9786 43.3257 38.3341C43.5034 38.6896 43.5328 39.1011 43.4074 39.4783L41.9073 43.9784C41.7707 44.3416 41.4988 44.6377 41.1485 44.8046C40.7983 44.9715 40.397 44.9962 40.0289 44.8735C39.6608 44.7508 39.3546 44.4903 39.1745 44.1466C38.9945 43.8029 38.9546 43.4029 39.0632 43.0304L40.5633 38.5302C40.6892 38.1532 40.9597 37.8417 41.3152 37.6639C41.6707 37.4862 42.0822 37.4568 42.4593 37.5822V37.5822ZM21.1435 33.832C21.2682 33.5832 21.4597 33.3739 21.6965 33.2277C21.9333 33.0815 22.2062 33.004 22.4845 33.004H25.4847C25.7222 33.0042 25.9564 33.0608 26.1678 33.1691C26.3792 33.2775 26.5618 33.4345 26.7007 33.6273C26.8395 33.82 26.9306 34.043 26.9664 34.2779C27.0023 34.5127 26.9818 34.7527 26.9067 34.9781L26.0667 37.5042H28.4848C28.7671 37.5046 29.0435 37.5846 29.2823 37.7351C29.5211 37.8856 29.7126 38.1004 29.8348 38.3548C29.957 38.6092 30.005 38.893 29.9731 39.1735C29.9413 39.4539 29.831 39.7197 29.6548 39.9403L23.6546 47.4406C23.4405 47.7065 23.1421 47.8915 22.8087 47.9649C22.4753 48.0383 22.1268 47.9958 21.8208 47.8444C21.5148 47.693 21.2696 47.4417 21.1257 47.1321C20.9819 46.8225 20.9479 46.473 21.0295 46.1415L22.0645 42.0044H19.4844C19.2286 42.0044 18.9771 41.9389 18.7537 41.8143C18.5303 41.6897 18.3425 41.51 18.2081 41.2924C18.0737 41.0747 17.9972 40.8263 17.9859 40.5707C17.9746 40.3152 18.0288 40.061 18.1434 39.8323L21.1435 33.832V33.832ZM40.2003 12.0842C39.5772 8.94354 37.9658 6.08457 35.6017 3.92529C33.2375 1.76601 30.2446 0.419672 27.0605 0.083127C23.8764 -0.253418 20.6681 0.437482 17.9048 2.05481C15.1414 3.67214 12.9679 6.13106 11.7021 9.07206C10.2826 8.90853 8.84459 9.03645 7.47621 9.44799C6.10782 9.85954 4.83783 10.546 3.74399 11.4655C2.65016 12.3849 1.75549 13.5179 1.11476 14.7952C0.47404 16.0724 0.100745 17.467 0.017734 18.8935C-0.0652768 20.32 0.143743 21.7485 0.631996 23.0914C1.12025 24.4343 1.87746 25.6635 2.85727 26.7036C3.83708 27.7437 5.01887 28.5728 6.33029 29.1403C7.6417 29.7078 9.05514 30.0017 10.4841 30.0039H38.9852C41.2686 30.0065 43.4677 29.1411 45.1369 27.583C46.8061 26.0249 47.8208 23.8906 47.9752 21.6124C48.1297 19.3342 47.4125 17.0825 45.9689 15.3133C44.5252 13.5442 42.4631 12.3898 40.2003 12.0842V12.0842Z" fill="#EEEEEE"/>
</svg>
