<svg width="36" height="36" viewBox="0 0 36 36" fill="none" xmlns="http://www.w3.org/2000/svg">
<path d="M18 0C14.4399 0 10.9598 1.05568 7.99974 3.03355C5.03966 5.01141 2.73255 7.82263 1.37018 11.1117C0.00779906 14.4008 -0.348661 18.02 0.345873 21.5116C1.04041 25.0033 2.75474 28.2106 5.27209 30.7279C7.78943 33.2453 10.9967 34.9596 14.4884 35.6541C17.98 36.3487 21.5992 35.9922 24.8883 34.6298C28.1774 33.2674 30.9886 30.9603 32.9665 28.0003C34.9443 25.0402 36 21.5601 36 18C36 13.2261 34.1036 8.64773 30.7279 5.27208C27.3523 1.89642 22.7739 0 18 0ZM28.125 13.815C28.125 14.2155 28.0062 14.607 27.7837 14.94C27.5612 15.273 27.245 15.5326 26.8749 15.6859C26.5049 15.8391 26.0978 15.8792 25.7049 15.8011C25.3121 15.723 24.9513 15.5301 24.6681 15.2469C24.3849 14.9637 24.192 14.6029 24.1139 14.2101C24.0358 13.8172 24.0759 13.4101 24.2291 13.0401C24.3824 12.67 24.642 12.3538 24.975 12.1313C25.308 11.9088 25.6995 11.79 26.1 11.79C26.6371 11.79 27.1521 12.0033 27.5319 12.3831C27.9117 12.7629 28.125 13.2779 28.125 13.815ZM10.6313 15.84C10.2307 15.84 9.83924 15.7212 9.50623 15.4987C9.17322 15.2762 8.91367 14.96 8.7604 14.5899C8.60713 14.2199 8.56703 13.8128 8.64517 13.4199C8.7233 13.0271 8.91616 12.6663 9.19937 12.3831C9.48257 12.0999 9.84339 11.907 10.2362 11.8289C10.629 11.7508 11.0362 11.7909 11.4062 11.9441C11.7762 12.0974 12.0925 12.357 12.315 12.69C12.5375 13.023 12.6563 13.4145 12.6563 13.815C12.6563 14.0848 12.6025 14.3518 12.4979 14.6005C12.3934 14.8491 12.2402 15.0744 12.0473 15.263C11.8545 15.4517 11.6259 15.5999 11.375 15.699C11.1241 15.798 10.8559 15.846 10.5863 15.84H10.6313ZM26.3813 24.3112C26.5603 24.5499 26.6371 24.85 26.5949 25.1453C26.5528 25.4407 26.3949 25.7072 26.1563 25.8862C25.9176 26.0653 25.6175 26.1421 25.3222 26.0999C25.0268 26.0577 24.7603 25.8999 24.5813 25.6612C23.8389 24.6677 22.8724 23.8635 21.7604 23.3143C20.6484 22.765 19.4224 22.4861 18.1822 22.5004C16.942 22.5146 15.7228 22.8216 14.6237 23.3963C13.5246 23.971 12.5768 24.7971 11.8575 25.8075C11.6845 26.0507 11.4219 26.2151 11.1276 26.2647C10.8333 26.3143 10.5313 26.2449 10.2881 26.0719C10.045 25.8988 9.8805 25.6363 9.83092 25.3419C9.78134 25.0476 9.8507 24.7457 10.0238 24.5025C10.9484 23.2036 12.1667 22.1414 13.5795 21.4024C14.9923 20.6635 16.5596 20.2686 18.1539 20.2499C19.7482 20.2313 21.3243 20.5894 22.754 21.2952C24.1837 22.0009 25.4265 23.0343 26.3813 24.3112Z" fill="#3A3F47"/>
</svg>
