<svg width="48" height="48" viewBox="0 0 48 48" fill="none" xmlns="http://www.w3.org/2000/svg">
<path d="M33.2308 20.3077C33.2308 16.75 31.9663 13.7067 29.4375 11.1779C26.9087 8.64904 23.8654 7.38462 20.3077 7.38462C16.75 7.38462 13.7067 8.64904 11.1779 11.1779C8.64904 13.7067 7.38462 16.75 7.38462 20.3077C7.38462 23.8654 8.64904 26.9087 11.1779 29.4375C13.7067 31.9663 16.75 33.2308 20.3077 33.2308C23.8654 33.2308 26.9087 31.9663 29.4375 29.4375C31.9663 26.9087 33.2308 23.8654 33.2308 20.3077ZM48 44.3077C48 45.3077 47.6346 46.1731 46.9038 46.9038C46.1731 47.6346 45.3077 48 44.3077 48C43.2692 48 42.4038 47.6346 41.7115 46.9038L31.8173 37.0385C28.375 39.4231 24.5385 40.6154 20.3077 40.6154C17.5577 40.6154 14.9279 40.0817 12.4183 39.0144C9.90865 37.9471 7.74519 36.5048 5.92788 34.6875C4.11058 32.8702 2.66827 30.7067 1.60096 28.1971C0.533654 25.6875 0 23.0577 0 20.3077C0 17.5577 0.533654 14.9279 1.60096 12.4183C2.66827 9.90865 4.11058 7.74519 5.92788 5.92788C7.74519 4.11058 9.90865 2.66827 12.4183 1.60096C14.9279 0.533654 17.5577 0 20.3077 0C23.0577 0 25.6875 0.533654 28.1971 1.60096C30.7067 2.66827 32.8702 4.11058 34.6875 5.92788C36.5048 7.74519 37.9471 9.90865 39.0144 12.4183C40.0817 14.9279 40.6154 17.5577 40.6154 20.3077C40.6154 24.5385 39.4231 28.375 37.0385 31.8173L46.9327 41.7115C47.6442 42.4231 48 43.2885 48 44.3077Z" fill="#EEEEEE"/>
</svg>
