<svg width="48" height="48" viewBox="0 0 48 48" fill="none" xmlns="http://www.w3.org/2000/svg">
<path d="M39 0C34.0406 0 30 4.04062 30 9C30 13.9594 34.0406 18 39 18C43.9594 18 48 13.9594 48 9C48 4.04062 43.9594 0 39 0ZM39 12C37.3406 12 36 10.6594 36 9C36 7.34062 37.3406 6 39 6C40.6594 6 42 7.34062 42 9C42 10.6594 40.6594 12 39 12ZM24 10.5C24 4.69687 19.3031 0 13.5 0C7.69687 0 3 4.69687 3 10.5V26.1094C1.15312 28.425 0 31.3125 0 34.5C0 41.9531 6.04688 48 13.5 48C20.9531 48 27 41.9531 27 34.5C27 31.3125 25.8469 28.4156 24 26.1094V10.5ZM13.5 42C9.36563 42 6 38.6344 6 34.5C6 32.1094 7.14375 29.9156 9 28.5188V10.5C9 8.01562 11.0156 6 13.5 6C15.9844 6 18 8.01562 18 10.5V28.5188C19.8562 29.9063 21 32.1094 21 34.5C21 38.6344 17.6344 42 13.5 42ZM15 30.2719V10.5C15 9.675 14.325 9 13.5 9C12.675 9 12 9.675 12 10.5V30.2719C10.2562 30.8906 9 32.5406 9 34.5C9 36.9844 11.0156 39 13.5 39C15.9844 39 18 36.9844 18 34.5C18 32.5406 16.7438 30.8906 15 30.2719Z" fill="#EEEEEE"/>
</svg>
