<svg width="48" height="48" viewBox="0 0 48 48" fill="none" xmlns="http://www.w3.org/2000/svg">
<path fill-rule="evenodd" clip-rule="evenodd" d="M22.4 14.4C22.4 10.5809 23.9171 6.91819 26.6177 4.21766C29.3182 1.51714 32.9809 0 36.8 0L48 0V11.2C48 15.0191 46.4829 18.6818 43.7823 21.3823C41.0818 24.0829 37.4191 25.6 33.6 25.6H25.6V48H22.4V35.2H14.4C10.5809 35.2 6.91819 33.6829 4.21766 30.9823C1.51714 28.2818 0 24.6191 0 20.8L0 9.6H11.2C15.7248 9.6 19.76 11.6864 22.4 14.9472V14.4ZM26.0672 19.6672L35.6672 10.0672L37.9328 12.3328L28.3328 21.9328L26.0672 19.6672ZM19.6672 31.5328L10.0672 21.9328L12.3328 19.6672L21.9328 29.2672L19.6672 31.5328Z" fill="#EEEEEE"/>
</svg>
