<svg width="14" height="12" viewBox="0 0 14 12" fill="none" xmlns="http://www.w3.org/2000/svg">
<path d="M11.5825 0.382584C11.8195 0.13448 12.1349 -0.00268272 12.4621 3.97663e-05C12.7893 0.00276225 13.1027 0.145157 13.3363 0.397177C13.5698 0.649196 13.7052 0.991129 13.7138 1.35082C13.7225 1.71052 13.6037 2.05984 13.3826 2.32508L6.67004 11.5565C6.55461 11.6933 6.4153 11.803 6.26044 11.8791C6.10557 11.9553 5.93833 11.9963 5.76872 11.9998C5.5991 12.0032 5.4306 11.969 5.27327 11.8992C5.11595 11.8294 4.97304 11.7255 4.8531 11.5935L0.401592 6.69846C0.277624 6.57144 0.178194 6.41826 0.109231 6.24806C0.040268 6.07786 0.00318554 5.89413 0.000196364 5.70783C-0.00279281 5.52153 0.0283726 5.33648 0.0918326 5.16371C0.155293 4.99094 0.249748 4.834 0.369563 4.70225C0.489378 4.57049 0.632098 4.46663 0.78921 4.39684C0.946321 4.32706 1.11461 4.29279 1.28402 4.29608C1.45344 4.29936 1.62052 4.34014 1.7753 4.41598C1.93007 4.49181 2.06937 4.60115 2.18488 4.73747L5.70773 8.60951L11.5505 0.423284C11.5611 0.409041 11.5723 0.395453 11.5842 0.382584H11.5825Z" fill="#EEEEEE"/>
</svg>
