<svg width="100" height="100" viewBox="0 0 100 100" fill="none" xmlns="http://www.w3.org/2000/svg">
<path fill-rule="evenodd" clip-rule="evenodd" d="M46.6667 30C46.6667 22.0435 49.8274 14.4129 55.4535 8.7868C61.0796 3.16071 68.7102 0 76.6667 0L100 0V23.3333C100 31.2898 96.8393 38.9204 91.2132 44.5465C85.5871 50.1726 77.9565 53.3333 70 53.3333H53.3333V100H46.6667V73.3333H30C22.0435 73.3333 14.4129 70.1726 8.7868 64.5465C3.16071 58.9204 0 51.2898 0 43.3333L0 20H23.3333C32.76 20 41.1667 24.3467 46.6667 31.14V30ZM54.3067 40.9733L74.3067 20.9733L79.0267 25.6933L59.0267 45.6933L54.3067 40.9733ZM40.9733 65.6933L20.9733 45.6933L25.6933 40.9733L45.6933 60.9733L40.9733 65.6933Z" fill="#EEEEEE"/>
</svg>
