<svg width="25" height="31" viewBox="0 0 25 31" fill="none" xmlns="http://www.w3.org/2000/svg">
<path d="M12.0887 30.9972C8.98035 31.0646 5.97206 29.8971 3.7229 27.7506C1.47375 25.6041 0.167146 22.6536 0.0893555 19.5455C0.135223 17.3497 0.795824 15.2106 1.99616 13.3713L9.88515 1.62728C10.1281 1.26595 10.4561 0.969904 10.8403 0.765206C11.2246 0.560508 11.6533 0.453445 12.0887 0.453445C12.524 0.453445 12.9527 0.560508 13.337 0.765206C13.7213 0.969904 14.0493 1.26595 14.2922 1.62728L22.0372 13.1401C23.3183 15.0356 24.0299 17.2584 24.088 19.5455C24.0102 22.6536 22.7036 25.6041 20.4544 27.7506C18.2053 29.8971 15.197 31.0646 12.0887 30.9972ZM12.0887 6.16957L5.68321 15.697C4.92053 16.8392 4.49417 18.1727 4.45274 19.5455C4.5984 21.471 5.46609 23.2703 6.88205 24.5832C8.29801 25.8961 10.1577 26.6256 12.0887 26.6256C14.0196 26.6256 15.8793 25.8961 17.2953 24.5832C18.7112 23.2703 19.5789 21.471 19.7246 19.5455C19.6739 18.0827 19.1961 16.6667 18.3501 15.4723L12.0887 6.16957Z" fill="#EEEEEE"/>
</svg>
